<?xml version="1.0" standalone="no"?>
<!DOCTYPE svg PUBLIC "-//W3C//DTD SVG 20010904//EN"
 "http://www.w3.org/TR/2001/REC-SVG-20010904/DTD/svg10.dtd">
<svg version="1.0" xmlns="http://www.w3.org/2000/svg"
 width="600.000000pt" height="600.000000pt" viewBox="0 0 600.000000 600.000000"
 preserveAspectRatio="xMidYMid meet">
<metadata>
Created by potrace 1.11, written by Peter Selinger 2001-2013
</metadata>
<g transform="translate(0.000000,600.000000) scale(0.100000,-0.100000)"
fill="#000000" stroke="none">
<path d="M2477 5354 c-1 -1 -47 -4 -102 -8 -55 -4 -116 -8 -135 -11 -19 -2
-60 -6 -90 -9 -126 -14 -248 -33 -390 -63 -41 -8 -86 -18 -100 -20 -124 -25
-467 -130 -564 -173 -23 -9 -79 -34 -126 -55 -610 -267 -984 -675 -965 -1055
8 -165 73 -300 214 -440 199 -198 492 -341 961 -468 68 -18 96 -25 155 -36
172 -33 190 -40 240 -92 5 -5 50 -46 100 -90 161 -142 198 -176 345 -324 249
-249 355 -400 472 -675 45 -105 152 -458 330 -1085 12 -41 24 -78 27 -82 3 -4
5 633 3 1415 -2 782 -4 1423 -6 1424 -1 1 -63 21 -137 44 -670 206 -1041 449
-1104 722 -30 131 12 263 130 417 119 155 391 367 715 559 118 69 136 81 165
99 17 10 8 12 -58 10 -43 -2 -79 -4 -80 -4z"/>
<path d="M3386 5346 c10 -7 75 -46 144 -86 286 -167 546 -362 678 -505 247
-270 261 -505 42 -725 -121 -120 -322 -242 -555 -335 -49 -20 -99 -40 -110
-45 -26 -12 -337 -115 -392 -130 l-43 -11 0 -617 c-1 -339 -2 -979 -3 -1420
-1 -442 1 -806 4 -807 3 -2 6 1 6 8 1 12 135 479 228 793 122 408 213 601 386
820 61 77 309 330 420 429 30 28 91 82 134 120 43 39 84 75 90 80 6 6 24 22
41 37 24 23 55 32 179 58 196 41 463 116 550 155 17 7 55 23 85 35 336 132
595 347 685 569 31 76 36 98 40 205 5 142 -45 290 -151 441 -57 82 -205 232
-295 299 -35 26 -71 53 -79 59 -81 65 -402 234 -555 292 -38 15 -79 30 -90 35
-191 83 -683 196 -975 225 -30 3 -71 8 -90 10 -81 10 -162 16 -274 20 -101 4
-116 2 -100 -9z"/>
</g>
</svg>
